<?xml version="1.0" encoding="UTF-8"?>
<svg id="Capa_1" data-name="Capa 1" xmlns="http://www.w3.org/2000/svg" viewBox="0 0 1000 1000">
  <defs>
    <style>
      .cls-1 {
        fill: #ff79b1;
      }

      .cls-1, .cls-2, .cls-3, .cls-4, .cls-5, .cls-6 {
        stroke: #35110b;
        stroke-miterlimit: 10;
      }

      .cls-1, .cls-2, .cls-4, .cls-5 {
        stroke-linecap: round;
        stroke-width: 17.63px;
      }

      .cls-2 {
        fill: #fff;
      }

      .cls-3 {
        stroke-width: 13.22px;
      }

      .cls-3, .cls-7, .cls-5 {
        fill: #ffb8b1;
      }

      .cls-8 {
        fill: #fcfffe;
      }

      .cls-9 {
        fill: #fff0e9;
      }

      .cls-4 {
        fill: none;
      }

      .cls-10 {
        fill: #35110b;
      }

      .cls-6 {
        fill: #ffbe8b;
        stroke-width: 22.03px;
      }
    </style>
  </defs>
  <path class="cls-6" d="M912.43,500.03c0-36.83-14.56-70.43-38.49-95.97-1.45-45.56-12.14-88.94-30.37-128.57,50.37-19.21,86.16-67.94,86.16-125.06,0-73.92-59.92-133.84-133.84-133.84-56.78,0-105.26,35.37-124.71,85.26-52.03-25.38-111.18-39.74-173.92-39.74s-117.5,13.33-168.11,36.97c-19.22-50.36-67.94-86.14-125.05-86.14-73.91,0-133.83,59.92-133.83,133.84,0,55.91,34.29,103.79,82.98,123.81-20.65,43.08-32.32,90.75-32.8,140.92-20.02,24.48-31.97,55.17-31.97,88.52,0,44.96,21.66,85.14,55.64,111.69-17.11,49.01-26.51,98.22-26.51,143.15,0,191.06,169.98,232.19,379.65,232.19s379.65-41.13,379.65-232.19c0-43.77-8.94-91.62-25.22-139.37,36.89-26.43,60.73-68.31,60.73-115.47Z"/>
  <path class="cls-8" d="M900.71,496.63s-170.38,4.87-271.43-87.2c-101.06-92.07-122.36-212.86-122.36-212.86,0,0-42.3,121.93-141.84,214-99.54,92.07-263.2,81.87-265.51,86.81-4.49,8.05,5.78,151.44,142.33,115.99,8.31.57-124,88.34-113.22,177.93,23.22,115.3,104.51,144.33,104.51,144.33,0,0,67.19,43.13,273.72,42.18v-1.21c192.75-1.98,256.26-42.12,256.26-42.12,0,0,77.66-24.58,101.24-139.87-8.4-84.09-73.2-142.67-117.37-181.24,158.64,37.95,153.66-116.74,153.66-116.74Z"/>
  <g>
    <ellipse class="cls-10" cx="329.75" cy="431.34" rx="62.82" ry="6.73"/>
    <ellipse class="cls-10" cx="663.07" cy="431.88" rx="62.82" ry="6.73"/>
  </g>
  <g>
    <g>
      <path class="cls-2" d="M228.53,752.47c27.31,27.93,27.56,19.95,71.54,48.52"/>
      <path class="cls-2" d="M388.13,725.33c-28.61-45.11-52.12-39.81-80.59-89.19"/>
      <path class="cls-5" d="M300.08,800.99c34.94,22.7,69.18,32.97,93.29,10.68,23.67-21.89,15.64-53.43-5.24-86.34"/>
    </g>
    <path class="cls-4" d="M352.11,785.67c7.78,7.98,15.56,15.97,23.33,23.95"/>
    <path class="cls-4" d="M379.14,764.47c8.6,6.8,16.49,14.5,23.5,22.94"/>
  </g>
  <g>
    <g>
      <path class="cls-2" d="M759.66,748.79c-27.31,27.93-27.56,19.95-71.54,48.52"/>
      <path class="cls-2" d="M600.07,721.65c28.61-45.11,52.12-39.81,80.59-89.19"/>
      <path class="cls-5" d="M688.12,797.31c-34.94,22.7-69.18,32.97-93.29,10.68-23.67-21.89-15.64-53.43,5.24-86.34"/>
    </g>
    <path class="cls-1" d="M636.08,781.99c-7.78,7.98-15.56,15.97-23.33,23.95"/>
    <path class="cls-1" d="M609.05,760.79c-8.6,6.8-16.49,14.5-23.5,22.94"/>
  </g>
  <ellipse class="cls-5" cx="272.08" cy="893.68" rx="60.34" ry="81.49" transform="translate(-552.24 454.14) rotate(-45)"/>
  <ellipse class="cls-5" cx="703.82" cy="896.17" rx="81.49" ry="60.34" transform="translate(-427.55 760.16) rotate(-45)"/>
  <path class="cls-7" d="M186.58,243.09c11.72-37.25,40.72-68.43,80.74-81.24,10.82-3.47,21.77-5.34,32.6-5.81-.29-7.82-1.61-15.74-4.12-23.56-14.78-46.14-64.16-71.56-110.29-56.78-46.14,14.78-71.56,64.16-56.78,110.29,9.1,28.42,31.34,48.96,57.86,57.1Z"/>
  <path class="cls-7" d="M703.76,138.57c37.25,11.72,68.43,40.72,81.24,80.74,3.47,10.82,5.34,21.77,5.81,32.6,7.82-.29,15.74-1.61,23.56-4.12,46.14-14.78,71.56-64.16,56.78-110.29-14.78-46.14-64.16-71.56-110.29-56.78-28.42,9.1-48.96,31.34-57.1,57.86Z"/>
  <ellipse class="cls-7" cx="234.75" cy="468.17" rx="65.32" ry="35.46"/>
  <ellipse class="cls-7" cx="772.25" cy="469.41" rx="65.32" ry="35.46"/>
  <path class="cls-3" d="M496.58,417.45c-6.14,8.88-17.06,17.81-33.95,17.81-2.07,0-3.99-.17-5.86-.41-.13,1.36-.2,2.74-.2,4.13,0,22.93,18.07,41.53,40.36,41.53s40.36-18.59,40.36-41.53c0-1.87-.16-3.69-.39-5.49-2.55.48-5.26.76-8.16.76-16.63,0-26.69-8.31-32.15-16.8Z"/>
  <path class="cls-10" d="M564.81,402.94c-3.02-1.09-6.28.61-7.16,3.64-.23.79-5.51,17.84-23.56,20.75-1.69.27-3.44.47-5.36.47-17.94,0-23.99-12.56-25.71-17.66,2.46-1.42,4.71-4.69,5.66-6.31.47-.81.76-1.67.76-2.58,0-4.27-5.66-7.72-12.65-7.72s-12.65,3.46-12.65,7.72c0,.93.3,1.81.79,2.64.98,1.64,3.2,4.81,5.69,6.17-2.38,5.58-9.92,18.75-28,18.75-1.17,0-2.27-.08-3.34-.18-19.05-1.81-22.82-18.82-22.99-19.64-.61-3.09-3.69-5.08-6.79-4.26-2.88.75-4.55,3.85-3.94,6.76,1.92,9.19,10.75,25.29,31.2,27.93,1.87.24,3.8.41,5.86.41,16.84,0,27.75-8.88,33.9-17.74.03-.04.08-.04.11,0,5.47,8.46,15.52,16.72,32.09,16.72,2.9,0,5.61-.28,8.16-.76,18.92-3.56,28.54-19.06,31.24-28.04.85-2.84-.52-6.05-3.31-7.06Z"/>
  <polygon class="cls-9" points="502.98 679.17 385.54 615.31 620.41 615.31 502.98 679.17"/>
</svg>