<?xml version="1.0" encoding="UTF-8"?>
<svg id="Capa_1" data-name="Capa 1" xmlns="http://www.w3.org/2000/svg" viewBox="0 0 1000 1000">
  <defs>
    <style>
      .cls-1 {
        fill: #e2ce3d;
      }

      .cls-2 {
        fill: #5f2368;
      }

      .cls-3 {
        fill: #fcff63;
      }
    </style>
  </defs>
  <g>
    <path class="cls-2" d="M440.49,98.03c-67.57,19.7-124.9,200.62-166.02,322.78l390.4-17.86c-64.61-127.37-153.2-325.68-224.38-304.92Z"/>
    <path class="cls-2" d="M1002.02,627.88c-15.54-28.73-168.06-64.46-246.75-106.96l-547.57,25.05c-62.13,35.86-201.91,68.74-203.96,94.37-2.37,29.69,1016.35,20.96,998.28-12.46Z"/>
    <path class="cls-3" d="M723.56,499.57c-15.13-13.81-35.34-50.58-58.7-96.62l-390.4,17.86c-17.86,53.05-32.66,95.02-43.92,107.89-5.09,5.82-12.99,11.58-22.85,17.27l547.57-25.05c-12.84-6.94-23.72-14.05-31.71-21.35Z"/>
  </g>
  <path class="cls-3" d="M513.27,72.25l-17.89,13.68c-4.89,3.74-6.81,10.2-4.77,16l7.48,21.24c4.57,12.98-10.14,24.23-21.46,16.41l-18.54-12.79c-5.07-3.49-11.81-3.33-16.69.41l-17.89,13.68c-10.93,8.36-26.17-2.15-22.24-15.34l6.43-21.58c1.76-5.9-.48-12.26-5.55-15.75l-18.54-12.79c-11.33-7.81-6.04-25.56,7.72-25.89l22.51-.55c6.15-.15,11.51-4.25,13.27-10.14l6.43-21.58c3.93-13.19,22.44-13.64,27.01-.66l7.48,21.24c2.04,5.8,7.59,9.63,13.75,9.48l22.51-.55c13.76-.34,19.91,17.13,8.98,25.49Z"/>
  <path class="cls-1" d="M357.13,385.65v170.54h194.26v-170.54h-194.26ZM514.12,522.31h-119.72v-102.78h119.72v102.78Z"/>
  <rect class="cls-1" x="461.04" y="456.8" width="62.12" height="21.46"/>
  <polygon class="cls-1" points="428.28 280.61 398.26 270.52 379.38 295.96 379.7 264.29 349.68 254.2 379.9 244.71 380.21 213.04 398.57 238.85 428.8 229.36 409.92 254.8 428.28 280.61"/>
  <polygon class="cls-1" points="540.09 328.05 510.87 315.11 489.53 338.91 492.81 307.11 463.58 294.18 494.83 287.47 498.1 255.67 514.14 283.32 545.39 276.61 524.06 300.4 540.09 328.05"/>
  <polygon class="cls-1" points="689.18 595.72 665.38 586.2 648.96 605.89 650.67 580.31 626.86 570.79 651.72 564.5 653.42 538.92 667.08 560.62 691.93 554.33 675.52 574.02 689.18 595.72"/>
  <polygon class="cls-1" points="284.85 600.24 261.49 600.06 254.11 622.21 247.06 599.95 223.71 599.77 242.71 586.19 235.66 563.92 254.45 577.79 273.44 564.21 266.06 586.37 284.85 600.24"/>
  <polygon class="cls-1" points="411.34 342.73 404.1 339.04 398.36 344.79 399.63 336.76 392.39 333.07 400.42 331.8 401.69 323.78 405.37 331.02 413.4 329.75 407.65 335.49 411.34 342.73"/>
</svg>