<?xml version="1.0" encoding="UTF-8"?>
<svg xmlns="http://www.w3.org/2000/svg" width="520" height="300" viewBox="210 30 520 300">
  <defs>
    <filter id="shadow" x="-20%" y="-20%" width="140%" height="140%">
      <feDropShadow dx="0" dy="4" stdDeviation="4" flood-color="#000000" flood-opacity="0.18"/>
    </filter>
    <style>
      .line { stroke:#35110b; stroke-width:8; stroke-linecap:round; stroke-linejoin:round; }
      .lineThin { stroke:#35110b; stroke-width:5; stroke-linecap:round; stroke-linejoin:round; }
    </style>
  </defs>
  <rect width="100%" height="100%" fill="none"/>
  <g filter="url(#shadow)">
    
<path d="M250 222 C305 165, 420 124, 560 140 C607 145, 631 173, 615 197 C598 222, 532 224, 462 220 C360 214, 304 221, 250 222 Z" fill="#d92d42" class="line"/>
<path d="M365 179 C410 100, 525 58, 629 92 C675 108, 682 158, 652 191 C625 220, 577 223, 547 199 C505 166, 471 164, 439 172" fill="#e63c53" class="line"/>
<ellipse cx="420" cy="222" rx="190" ry="33" fill="#fff6f6" class="line"/>
<circle cx="650" cy="189" r="41" fill="#fff6f6" class="line"/>
<path d="M376 164 C425 127, 521 96, 596 107" fill="none" class="lineThin" opacity="0.25"/>

  </g>
</svg>
