<?xml version="1.0" encoding="UTF-8"?>
<svg xmlns="http://www.w3.org/2000/svg" width="500" height="300" viewBox="200 40 500 300">
  <defs>
    <filter id="shadow" x="-20%" y="-20%" width="140%" height="140%">
      <feDropShadow dx="0" dy="4" stdDeviation="4" flood-color="#000000" flood-opacity="0.18"/>
    </filter>
    <style>
      .line { stroke:#35110b; stroke-width:8; stroke-linecap:round; stroke-linejoin:round; }
      .thin { stroke:#35110b; stroke-width:5; stroke-linecap:round; stroke-linejoin:round; }
    </style>
  </defs>
  <rect width="100%" height="100%" fill="none"/>
  <g filter="url(#shadow)">
    <path d="M355 237 V166 C355 122 397 92 455 92 C513 92 555 122 555 166 V237 L527 218 L501 238 L475 218 L449 238 L423 218 L397 238 Z" fill="#f7f3ff" class="line"/>
    <circle cx="422" cy="160" r="15" fill="#35110b"/>
    <circle cx="494" cy="160" r="15" fill="#35110b"/>
    <circle cx="428" cy="154" r="5" fill="#ffffff"/>
    <circle cx="500" cy="154" r="5" fill="#ffffff"/>
    <path d="M414 205 Q455 226 498 205" fill="none" class="thin"/>
    <path d="M330 238 Q455 263 580 238 L575 254 Q455 282 335 254 Z" fill="#fff5cf" class="line"/>
  </g>
</svg>
