<?xml version="1.0" encoding="UTF-8"?>
<svg xmlns="http://www.w3.org/2000/svg" width="400" height="240" viewBox="240 50 400 240">
  <defs>
    <filter id="shadow" x="-20%" y="-20%" width="140%" height="140%">
      <feDropShadow dx="0" dy="4" stdDeviation="4" flood-color="#000000" flood-opacity="0.18"/>
    </filter>
    <style>
      .line { stroke:#35110b; stroke-width:8; stroke-linecap:round; stroke-linejoin:round; }
      .lineThin { stroke:#35110b; stroke-width:5; stroke-linecap:round; stroke-linejoin:round; }
    </style>
  </defs>
  <rect width="100%" height="100%" fill="none"/>
  <g filter="url(#shadow)">
    <path d="M298 222 Q 440 200 582 222 L 578 234 Q 440 214 302 234 Z" fill="#c0c8d4" class="line"/>
    <path d="M418 216 L 440 128 L 462 216 Z" fill="#c0c8d4" class="line"/>
    <path d="M338 220 L 348 178 L 358 220 Z" fill="#c0c8d4" class="lineThin"/>
    <path d="M542 220 L 532 178 L 522 220 Z" fill="#c0c8d4" class="lineThin"/>
    <path d="M440 178 C 424 164, 422 144, 434 144 C 440 144, 440 150, 440 154 C 440 150, 440 144, 446 144 C 458 144, 456 164, 440 178 Z" fill="#ff6b9d" class="lineThin"/>
    <circle cx="348" cy="170" r="3" fill="#fff6f6" class="lineThin"/>
    <circle cx="532" cy="170" r="3" fill="#fff6f6" class="lineThin"/>
    <path d="M438 105 L 442 118 M 432 112 L 448 112" class="lineThin" fill="none" opacity="0.6"/>
  </g>
</svg>