<?xml version="1.0" encoding="UTF-8"?>
<svg id="Capa_1" data-name="Capa 1" xmlns="http://www.w3.org/2000/svg" viewBox="0 0 800 300">
  <defs>
    <style>
      .cls-1 {
        fill: #aefdff;
      }

      .cls-2 {
        opacity: .25;
      }

      .cls-3 {
        fill: none;
        stroke: #aefdff;
        stroke-linecap: round;
        stroke-linejoin: round;
        stroke-width: 19px;
      }
    </style>
  </defs>
  <g>
    <g class="cls-2">
      <ellipse class="cls-1" cx="220.42" cy="150.85" rx="127.62" ry="128.75"/>
    </g>
    <g class="cls-2">
      <ellipse class="cls-1" cx="586.35" cy="150.85" rx="127.62" ry="128.75"/>
    </g>
  </g>
  <g>
    <path class="cls-1" d="M220.04,46.25c57.14,0,103.62,46.99,103.62,104.75s-46.49,104.75-103.62,104.75-103.62-46.99-103.62-104.75,46.49-104.75,103.62-104.75M220.04,22.25c-70.48,0-127.62,57.64-127.62,128.75s57.14,128.75,127.62,128.75,127.62-57.64,127.62-128.75S290.52,22.25,220.04,22.25h0Z"/>
    <path class="cls-1" d="M585.96,46.25c57.14,0,103.62,46.99,103.62,104.75s-46.49,104.75-103.62,104.75-103.62-46.99-103.62-104.75,46.49-104.75,103.62-104.75M585.96,22.25c-70.48,0-127.62,57.64-127.62,128.75s57.14,128.75,127.62,128.75,127.62-57.64,127.62-128.75-57.14-128.75-127.62-128.75h0Z"/>
    <path class="cls-3" d="M336.36,161.16c0-37.43,30.34-67.76,67.76-67.76s67.76,30.34,67.76,67.76"/>
  </g>
</svg>