<?xml version="1.0" encoding="UTF-8"?>
<svg id="Capa_1" data-name="Capa 1" xmlns="http://www.w3.org/2000/svg" viewBox="0 0 800 300">
  <defs>
    <style>
      .cls-1 {
        stroke-linecap: round;
        stroke-linejoin: round;
        stroke-width: 19px;
      }

      .cls-1, .cls-2 {
        fill: none;
        stroke: #fcff63;
      }

      .cls-2 {
        stroke-miterlimit: 10;
        stroke-width: 41.17px;
      }

      .cls-3 {
        fill: #fcff63;
        opacity: .27;
      }
    </style>
  </defs>
  <path class="cls-3" d="M354.12,130.94l-27.48,44.22c-7.8,12.54-12.66,26.69-14.24,41.37l-5.55,51.77c-.7,6.53-7,10.94-13.38,9.37l-50.55-12.47c-14.34-3.54-29.29-3.8-43.75-.76l-50.95,10.71c-6.43,1.35-12.57-3.28-13.04-9.83l-3.76-51.93c-1.07-14.73-5.44-29.03-12.8-41.84l-25.93-45.15c-3.27-5.69-.77-12.97,5.31-15.44l48.23-19.62c13.68-5.57,25.93-14.15,35.84-25.1l34.92-38.62c4.41-4.87,12.1-4.74,16.33.28l33.56,39.8c9.52,11.29,21.47,20.29,34.95,26.33l47.52,21.28c5.99,2.68,8.24,10.04,4.78,15.62Z"/>
  <path class="cls-3" d="M713.48,131.55l-27.48,44.22c-7.8,12.54-12.66,26.69-14.24,41.37l-5.55,51.77c-.7,6.53-7,10.94-13.38,9.37l-50.55-12.47c-14.34-3.54-29.29-3.8-43.75-.76l-50.95,10.71c-6.43,1.35-12.57-3.28-13.04-9.83l-3.76-51.93c-1.07-14.73-5.44-29.03-12.8-41.84l-25.93-45.15c-3.27-5.69-.77-12.97,5.31-15.44l48.23-19.62c13.68-5.57,25.93-14.15,35.84-25.1l34.92-38.62c4.41-4.87,12.1-4.74,16.33.28l33.56,39.8c9.52,11.29,21.47,20.29,34.95,26.33l47.52,21.28c5.99,2.68,8.24,10.04,4.78,15.62Z"/>
  <path class="cls-1" d="M333.36,170.33c0-37.43,30.34-67.76,67.76-67.76s67.76,30.34,67.76,67.76"/>
  <path class="cls-2" d="M354.12,130.94l-27.48,44.22c-7.8,12.54-12.66,26.69-14.24,41.37l-5.55,51.77c-.7,6.53-7,10.94-13.38,9.37l-50.55-12.47c-14.34-3.54-29.29-3.8-43.75-.76l-50.95,10.71c-6.43,1.35-12.57-3.28-13.04-9.83l-3.76-51.93c-1.07-14.73-5.44-29.03-12.8-41.84l-25.93-45.15c-3.27-5.69-.77-12.97,5.31-15.44l48.23-19.62c13.68-5.57,25.93-14.15,35.84-25.1l34.92-38.62c4.41-4.87,12.1-4.74,16.33.28l33.56,39.8c9.52,11.29,21.47,20.29,34.95,26.33l47.52,21.28c5.99,2.68,8.24,10.04,4.78,15.62Z"/>
  <path class="cls-2" d="M713.48,131.55l-27.48,44.22c-7.8,12.54-12.66,26.69-14.24,41.37l-5.55,51.77c-.7,6.53-7,10.94-13.38,9.37l-50.55-12.47c-14.34-3.54-29.29-3.8-43.75-.76l-50.95,10.71c-6.43,1.35-12.57-3.28-13.04-9.83l-3.76-51.93c-1.07-14.73-5.44-29.03-12.8-41.84l-25.93-45.15c-3.27-5.69-.77-12.97,5.31-15.44l48.23-19.62c13.68-5.57,25.93-14.15,35.84-25.1l34.92-38.62c4.41-4.87,12.1-4.74,16.33.28l33.56,39.8c9.52,11.29,21.47,20.29,34.95,26.33l47.52,21.28c5.99,2.68,8.24,10.04,4.78,15.62Z"/>
</svg>