<?xml version="1.0" encoding="UTF-8"?>
<svg id="Capa_1" data-name="Capa 1" xmlns="http://www.w3.org/2000/svg" viewBox="0 0 800 300">
  <defs>
    <style>
      .cls-1 {
        fill: #aefdff;
      }

      .cls-2 {
        stroke-linecap: round;
        stroke-linejoin: round;
        stroke-width: 19px;
      }

      .cls-2, .cls-3 {
        fill: none;
        stroke: #000;
      }

      .cls-3 {
        stroke-miterlimit: 10;
      }

      .cls-4 {
        opacity: .25;
      }
    </style>
  </defs>
  <g>
    <g class="cls-4">
      <path class="cls-1" d="M217.04,282.77c-70.1,0-127.12-57.53-127.12-128.25S146.94,26.26,217.04,26.26s127.12,57.53,127.12,128.25-57.03,128.25-127.12,128.25Z"/>
      <path d="M217.04,26.77c33.82,0,65.62,13.29,89.53,37.41,23.92,24.13,37.09,56.21,37.09,90.34s-13.17,66.21-37.09,90.34c-23.92,24.13-55.71,37.41-89.53,37.41s-65.62-13.29-89.53-37.41c-23.92-24.13-37.09-56.21-37.09-90.34s13.17-66.21,37.09-90.34c23.92-24.13,55.71-37.41,89.53-37.41M217.04,25.77c-70.48,0-127.62,57.64-127.62,128.75s57.14,128.75,127.62,128.75,127.62-57.64,127.62-128.75S287.52,25.77,217.04,25.77h0Z"/>
    </g>
    <g class="cls-4">
      <path class="cls-1" d="M582.96,282.77c-70.1,0-127.12-57.53-127.12-128.25s57.03-128.25,127.12-128.25,127.12,57.53,127.12,128.25-57.03,128.25-127.12,128.25Z"/>
      <path d="M582.96,26.77c33.82,0,65.62,13.29,89.53,37.41,23.92,24.13,37.09,56.21,37.09,90.34s-13.17,66.21-37.09,90.34c-23.92,24.13-55.71,37.41-89.53,37.41s-65.62-13.29-89.53-37.41c-23.92-24.13-37.09-56.21-37.09-90.34s13.17-66.21,37.09-90.34c23.92-24.13,55.71-37.41,89.53-37.41M582.96,25.77c-70.48,0-127.62,57.64-127.62,128.75s57.14,128.75,127.62,128.75,127.62-57.64,127.62-128.75-57.14-128.75-127.62-128.75h0Z"/>
    </g>
    <path class="cls-3" d="M333.36,164.68c0-37.43,30.34-67.76,67.76-67.76s67.76,30.34,67.76,67.76"/>
  </g>
  <g>
    <path d="M217.04,49.77c57.14,0,103.62,46.99,103.62,104.75s-46.49,104.75-103.62,104.75-103.62-46.99-103.62-104.75,46.48-104.75,103.62-104.75M217.04,25.77c-70.48,0-127.62,57.64-127.62,128.75s57.14,128.75,127.62,128.75,127.62-57.64,127.62-128.75S287.52,25.77,217.04,25.77h0Z"/>
    <path d="M582.96,49.77c57.14,0,103.62,46.99,103.62,104.75s-46.49,104.75-103.62,104.75-103.62-46.99-103.62-104.75,46.49-104.75,103.62-104.75M582.96,25.77c-70.48,0-127.62,57.64-127.62,128.75s57.14,128.75,127.62,128.75,127.62-57.64,127.62-128.75-57.14-128.75-127.62-128.75h0Z"/>
    <path class="cls-2" d="M333.36,164.68c0-37.43,30.34-67.76,67.76-67.76s67.76,30.34,67.76,67.76"/>
  </g>
</svg>