<?xml version="1.0" encoding="UTF-8"?>
<svg id="Capa_1" data-name="Capa 1" xmlns="http://www.w3.org/2000/svg" viewBox="0 0 800 300">
  <defs>
    <style>
      .cls-1 {
        fill: none;
        stroke: #ff290f;
        stroke-linecap: round;
        stroke-linejoin: round;
        stroke-width: 19px;
      }

      .cls-2 {
        fill: #ff6f6f;
      }

      .cls-3 {
        opacity: .25;
      }

      .cls-4 {
        fill: #ff290f;
      }
    </style>
  </defs>
  <g>
    <g class="cls-3">
      <path class="cls-2" d="M217.04,278.25c-70.1,0-127.12-57.53-127.12-128.25S146.94,21.75,217.04,21.75s127.12,57.53,127.12,128.25-57.03,128.25-127.12,128.25Z"/>
      <path d="M217.04,22.25c33.82,0,65.62,13.29,89.53,37.41,23.92,24.13,37.09,56.21,37.09,90.34s-13.17,66.21-37.09,90.34c-23.92,24.13-55.71,37.41-89.53,37.41s-65.62-13.29-89.53-37.41c-23.92-24.13-37.09-56.21-37.09-90.34s13.17-66.21,37.09-90.34c23.92-24.13,55.71-37.41,89.53-37.41M217.04,21.25c-70.48,0-127.62,57.64-127.62,128.75s57.14,128.75,127.62,128.75,127.62-57.64,127.62-128.75S287.52,21.25,217.04,21.25h0Z"/>
    </g>
    <g class="cls-3">
      <path class="cls-2" d="M582.96,278.25c-70.1,0-127.12-57.53-127.12-128.25s57.03-128.25,127.12-128.25,127.12,57.53,127.12,128.25-57.03,128.25-127.12,128.25Z"/>
      <path d="M582.96,22.25c33.82,0,65.62,13.29,89.53,37.41,23.92,24.13,37.09,56.21,37.09,90.34s-13.17,66.21-37.09,90.34c-23.92,24.13-55.71,37.41-89.53,37.41s-65.62-13.29-89.53-37.41c-23.92-24.13-37.09-56.21-37.09-90.34s13.17-66.21,37.09-90.34c23.92-24.13,55.71-37.41,89.53-37.41M582.96,21.25c-70.48,0-127.62,57.64-127.62,128.75s57.14,128.75,127.62,128.75,127.62-57.64,127.62-128.75-57.14-128.75-127.62-128.75h0Z"/>
    </g>
  </g>
  <g>
    <path class="cls-4" d="M218.73,44.4c57.14,0,103.62,46.99,103.62,104.75s-46.49,104.75-103.62,104.75-103.62-46.99-103.62-104.75,46.49-104.75,103.62-104.75M218.73,20.4c-70.48,0-127.62,57.64-127.62,128.75s57.14,128.75,127.62,128.75,127.62-57.64,127.62-128.75S289.21,20.4,218.73,20.4h0Z"/>
    <path class="cls-4" d="M584.66,44.4c57.14,0,103.62,46.99,103.62,104.75s-46.49,104.75-103.62,104.75-103.62-46.99-103.62-104.75,46.49-104.75,103.62-104.75M584.66,20.4c-70.48,0-127.62,57.64-127.62,128.75s57.14,128.75,127.62,128.75,127.62-57.64,127.62-128.75-57.14-128.75-127.62-128.75h0Z"/>
    <path class="cls-1" d="M335.06,159.32c0-37.43,30.34-67.76,67.76-67.76s67.76,30.34,67.76,67.76"/>
  </g>
</svg>